PathFileType	4	(X/Y/Z)	RBDS023\RBDS023runT35.trc
DataRate	CameraRate	NumFrames	NumMarkers	Units	OrigDataRate	OrigDataStartFrame	OrigNumFrames
150.000000	150.000000	6	33	mm	150.000000	3375	4500
Frame#	Time	L.ASIS			L.Heel.Bottom			L.Heel.Lateral			L.Heel.Top			L.Iliac.Crest			L.MT1			L.MT5			L.PSIS			L.Shank.Bottom.Lateral			L.Shank.Bottom.Medial			L.Shank.Top.Lateral			L.Shank.Top.Medial			L.Thigh.Bottom.Lateral			L.Thigh.Bottom.Medial			L.Thigh.Top.Lateral			L.Thigh.Top.Medial			R.ASIS			R.ASY			R.Heel.Bottom			R.Heel.Lateral			R.Heel.Top			R.Iliac.Crest			R.MT1			R.MT5			R.PSIS			R.Shank.Bottom.Lateral			R.Shank.Bottom.Medial			R.Shank.Top.Lateral			R.Shank.Top.Medial			R.Thigh.Bottom.Lateral			R.Thigh.Bottom.Medial			R.Thigh.Top.Lateral			R.Thigh.Top.Medial			
		X1	Y1	Z1	X2	Y2	Z2	X3	Y3	Z3	X4	Y4	Z4	X5	Y5	Z5	X6	Y6	Z6	X7	Y7	Z7	X8	Y8	Z8	X9	Y9	Z9	X10	Y10	Z10	X11	Y11	Z11	X12	Y12	Z12	X13	Y13	Z13	X14	Y14	Z14	X15	Y15	Z15	X16	Y16	Z16	X17	Y17	Z17	X18	Y18	Z18	X19	Y19	Z19	X20	Y20	Z20	X21	Y21	Z21	X22	Y22	Z22	X23	Y23	Z23	X24	Y24	Z24	X25	Y25	Z25	X26	Y26	Z26	X27	Y27	Z27	X28	Y28	Z28	X29	Y29	Z29	X30	Y30	Z30	X31	Y31	Z31	X32	Y32	Z32	X33	Y33	Z33	

3376	22.5	2329.932768354851	972.2263902216682	903.7738887676061	2194.676350345409	32.19584413673956	1000.250678998204	2221.55187639337	54.39842776054728	961.2831386569931	2209.035093656541	77.41379617605963	1006.507914593512	2252.846961120419	1035.464834747553	856.6004343238757	2424.011404629168	32.00610697799144	1030.228897397034	2382.557072947716	34.76571187801299	913.7512750342939	2152.843565512243	1011.565646553043	967.3986888379778	2307.452862611892	147.3434283519804	936.897184681843	2264.363984559568	162.3461562668644	959.8057873148764	2320.995400450855	222.0894970431129	908.3930941998659	2279.675564396274	241.9324463542657	935.5806190194462	2355.436659779264	637.6816004317408	842.7236149283054	2301.493352589967	613.1472706853715	881.2577455564718	2301.937464934154	734.0950963686504	833.1573110399827	2250.731947672763	711.0414180578863	870.869191686042	2338.826026081559	957.8990321051419	1116.569898990532	1813.754301373131	407.2936765173399	1078.721236878985	1818.805990111528	606.4262938445152	1055.079848679534	1831.044983939539	576.9761837064588	1100.443456769763	1860.159652406395	582.7899422829352	1054.603406917273	2287.178624198793	1046.60232353707	1164.969100036094	1753.907506062483	390.1720552645129	1038.371773303252	1768.892497667638	426.5736425531929	1145.7615673537	2160.881644907779	1012.075581666395	1076.449934169068	1934.657823174746	503.3662132403322	1117.728441944202	1940.296061194889	549.8575487925519	1087.539516639568	2014.801382638137	504.8789368057184	1132.520582795348	2019.220854990881	549.0461713494884	1101.592003323711	2258.078623594535	562.6011720003419	1152.087504597213	2204.609372616298	559.8394066620585	1101.880537321932	2233.450290867513	668.2338420037498	1168.317435444083	2183.526181636244	665.7842240940203	1120.44294531749	
3377	22.50666666666667	2327.47103059118	968.5473394000195	902.9868362769614	2171.666540246755	32.69264073477879	1000.427951133838	2198.439283356606	54.94175730485544	961.3861408931472	2185.972982199069	77.87712562110482	1006.643429717236	2249.438184892488	1030.146229890419	856.9446605658442	2400.621157094273	32.32367458694277	1030.284865040537	2359.066437952956	35.55978413823091	913.7596291654471	2150.579208015788	1008.665002123692	968.3320342106832	2287.340061126843	146.8262396079291	936.9293628415041	2244.674567352319	163.5165437113183	959.4967461019666	2303.824423489197	220.9267578987694	908.1708584229162	2263.054407333851	242.3637645141938	935.037846464989	2348.574006209612	633.1356569858016	842.189775549673	2294.780565781491	609.6476341928435	881.6071913441224	2296.501157968294	730.3361533561756	832.8327828518987	2245.477767709137	708.252294116322	871.3683322572607	2336.833552480334	954.2955029497841	1116.656484727265	1831.441464846105	403.7206087109269	1079.472219890579	1832.399909419253	603.0794539340881	1057.225301988884	1845.793827722844	573.5853652310693	1102.286739527721	1874.145602847012	580.0468830219181	1055.916918819683	2282.816222457142	1042.810532463102	1165.431048430603	1771.394991798462	385.709520112167	1039.911705728887	1787.358016619494	421.6641146982907	1147.268243853757	2158.967808136354	1009.035792520002	1076.646699698828	1950.39434242145	500.3930032245284	1118.763497460849	1955.977372923147	547.106244426995	1088.921811927255	2030.526136962737	501.9278402466676	1133.665233561234	2034.929205890186	546.2872734403084	1103.002781662608	2270.299565612523	560.2878936040984	1153.728124317247	2216.267631013149	555.0775464856632	1104.548997780502	2241.599582723145	664.8898491052137	1169.918522847618	2190.979213000401	660.0503497720963	1123.074747606833	
3378	22.51333333333334	2325.266875852697	965.5211650293858	902.1291546500656	2148.488968780809	32.98449517638122	1000.604556435062	2175.160612898942	55.24719512356034	961.4782161398616	2162.686771466788	78.14937209014833	1006.722391581238	2246.09652606304	1025.854894613743	857.2490060266027	2377.067268439097	32.65557338415955	1030.262663814916	2335.455228631251	36.16227477081516	913.8156117326749	2148.585355872645	1006.511841470675	969.0824070833659	2266.575203319972	146.2168441935071	936.9143280280607	2224.369589983643	164.4116063018697	959.2158765643518	2285.702966468044	219.6432976586061	907.9871929970044	2245.503771662346	242.4993949858748	934.585274443656	2340.927165233676	628.7743126505986	841.836722701287	2287.05012955025	606.5199974009987	881.8974455176451	2290.74595635849	726.9489886542614	832.6516361740646	2239.679289912448	706.0270600586199	871.8144218988791	2334.989346199116	951.5312294735887	1116.786984794273	1849.612308473365	398.7029103799576	1079.904178066242	1845.36257996887	598.2243860968319	1059.085709021971	1859.986023722898	568.7689842038375	1103.868773404684	1887.604946194584	576.0352337894875	1056.994739224373	2278.372829706598	1039.950997590431	1165.711191137662	1789.55360450785	379.4696725097807	1041.00196453371	1806.068071063719	415.0901203483036	1148.391847609088	2157.221735664188	1006.732189421445	1076.704271672436	1966.019855074594	496.6384220993133	1119.593999057209	1971.249305332607	543.6200273778027	1090.135065689563	2046.119277660091	498.7114842722036	1134.620748991852	2050.210140442301	543.3104843066989	1104.2865558212	2282.816977427574	559.2341147766141	1155.328416401979	2228.449945058729	551.487727541871	1107.077938321106	2249.984170643646	662.61855445938	1171.445035998708	2198.834802264101	655.2878330300035	1125.592278407458	
3379	22.52	2323.356891813966	963.1633692466672	901.2893777889269	2125.148013957399	33.16408781936332	1000.781854239825	2151.744902541697	55.40135392870051	961.5722616435866	2139.233489982066	78.3181109871623	1006.767630975042	2243.008527430951	1022.706773676116	857.489494390104	2353.407567684977	32.8712373205251	1030.20603265573	2311.76502238473	36.52949758993358	913.9308879571753	2146.898665352989	1005.104931997415	969.622046479384	2245.279169910133	145.5695124824988	936.8912311191544	2203.555465475651	165.0860984398192	959.0036538990024	2266.753904818243	218.3189715783655	907.8772110542236	2227.133845114745	242.4227557183787	934.2594845372394	2332.608621624629	624.7179846394893	841.6196554391436	2278.403165567845	603.846399915805	882.0324970740323	2284.749412702313	724.0181748380438	832.5871536346657	2233.409881929785	704.4159658196352	872.1451693314079	2333.340053459577	949.6541516974061	1116.957680219211	1868.203433077278	392.3082882178663	1080.021137405048	1857.65047705558	591.8201428762417	1060.652805222863	1873.566673604113	562.5065276718966	1105.183949697765	1900.480860200761	570.74260467485	1057.854094636556	2274.075209766898	1038.027011345177	1165.826661818754	1808.362159886094	371.5320600155198	1041.620234862952	1824.963596261324	406.9092943849714	1149.10780983395	2155.671165877396	1005.184789924154	1076.643316494686	1981.456600364592	492.1280264702181	1120.213021653289	1986.022339266193	539.4196467004665	1091.180669645604	2061.491310623637	495.2592261575651	1135.378664486596	2064.960766015913	540.146196495577	1105.443913424031	2295.489558734348	559.4898004637181	1156.842955382265	2241.014820733561	549.1633420382262	1109.389240166927	2258.513584356036	661.4728212134346	1172.857248375072	2207.021656917358	651.5971771697558	1127.923613811259	
3380	22.52666666666667	2321.773055465401	961.4733771602798	900.556077154812	2101.655756803962	33.34058547664902	1000.95816982288	2128.219527841489	55.50857394031966	961.6723795882667	2115.663829398269	78.48840592718757	1006.790447451846	2240.378855638972	1020.755598443097	857.6443607898109	2329.685491683166	32.91205136862099	1030.148528739144	2288.023610833196	36.67337950714038	914.1100142594025	2145.546819200127	1004.423723153283	969.9355879066179	2223.562474017709	144.9747890536325	936.8886094772919	2182.330000653343	165.6388885393859	958.8864746641317	2247.10375588693	217.066007619198	907.8646229995003	2208.059208248114	242.2553271017308	934.0823398778869	2323.729663144821	621.086350885373	841.5046026809647	2268.961011765294	601.7157831451919	881.9575779295515	2278.578184328116	721.6199907860621	832.6152891961921	2226.753005884935	703.466579129245	872.3250014614766	2331.924777708703	948.6885212195948	1117.162808605382	1887.185016580024	384.6270424807737	1079.829016086582	1869.260825459384	583.8274697333196	1061.927654884521	1886.525170917313	554.7795960237493	1106.2318859969	1912.752241092715	564.1567626848915	1058.51705017168	2270.140468697798	1037.022526708868	1165.8026787674	1827.831552466225	362.0062591363624	1041.751242209744	1844.033360925532	397.1925187201742	1149.397115808807	2154.341996210319	1004.402607635852	1076.48288003136	1996.653180524698	486.8907105390984	1120.616978558881	2000.240828117101	534.5192657417888	1092.056037359335	2076.571361172748	491.5930787767462	1135.933371482597	2079.105221619217	536.8066649957539	1106.469342592766	2308.163138858875	561.0708310334411	1158.233388887603	2253.791440189315	548.1680870486447	1111.423658051743	2267.088136433732	661.4797422975607	1174.12661422589	2215.448443369035	649.0592553228797	1130.011515630373	
3381	22.53333333333333	2320.54430681668	960.4392099496902	900.0051624779768	2078.029294616024	33.63643335312438	1001.127531307595	2104.609450793238	55.6846107581178	961.7723618536731	2092.021435245418	78.77960013585115	1006.787876637604	2238.405705836379	1019.988990194506	857.6979010782063	2305.928790285025	32.77801292237383	1030.112105104987	2264.245519821214	36.64302675724848	914.351442433427	2144.550107597234	1004.434120248385	970.0213170793551	2201.521489622552	144.5482909946282	936.9207984333553	2160.778200484379	166.1994711430739	958.872641835245	2226.875598686854	216.0171352514264	907.9588666655508	2188.390651544771	242.1428927555569	934.0571529228156	2314.389952206134	617.9894728706881	841.4765954053769	2258.856590527834	600.2200927292014	881.6729061503358	2272.283180750773	719.8169070103328	832.719788401218	2219.796874218599	703.2229504847442	872.3530227034792	2330.775214146091	948.6350615297566	1117.394500416564	1906.559129866248	375.7709575583344	1079.335867910124	1880.237565102592	574.2153475488102	1062.917747719972	1898.899591304169	545.5763873812522	1107.015053280343	1924.438602029338	556.2673821312303	1059.005775214522	2266.753706214381	1036.908112893051	1165.669334778929	1847.999730509816	351.031027291319	1041.388953008902	1863.312372670721	386.0290685167851	1149.249573779377	2153.25924342244	1004.38298455832	1076.239078924902	2011.587264970142	480.9579703892941	1120.805978792214	2013.886356111218	528.9264647245193	1092.754233740049	2091.310684242007	487.7270151477715	1136.282632405432	2092.599012212801	533.2848545007462	1107.350805239469	2320.681198275972	563.9548982391516	1159.470125388831	2266.594276903437	548.5293992371646	1113.143554642465	2275.605891011774	662.6367049727976	1175.23701615372	2224.010927160397	647.728110409372	1131.815966155372	
